#!OML:ASF F:\VICON\USERDATA\INSTALL\Justin_Nancy\Justin_Nancy.ASF
:FULLY-SPECIFIED
:DEGREES
488
root 13.9275 17.4625 15.8298 145.404 96.4298 142.004
lowerback 6.14303 2.04637 1.70598
upperback 0.0685285 2.97244 2.55348
thorax -3.42277 1.48521 1.40986
lowerneck -17.5453 -3.65357 -9.49887
upperneck 21.368 -3.23631 4.11917
head 9.93328 -1.73774 2.59214
rclavicle -3.96575e-014 -1.03368e-014
rhumerus -22.9798 -8.88152 -81.6368
rradius 36.9413
rwrist 1.83403
rhand -14.3632 12.1487
rfingers 7.12502
rthumb 11.7789 -17.5001
lclavicle -3.96575e-014 -1.03368e-014
lhumerus -34.1906 18.8732 81.017
lradius 22.7196
lwrist -12.0639
lhand -16.1458 23.5935
lfingers 7.12502
lthumb 10.0595 53.333
rfemur 8.12471 7.80877 28.5515
rtibia 15.965
rfoot -13.2168 -3.38114
rtoes 3.10441
lfemur -29.7232 -2.41428 -14.4794
ltibia 17.9867
lfoot -7.80393 6.23173
ltoes -15.3986
489
root 14.0734 17.4528 15.8227 144.131 96.2957 140.717
lowerback 6.10219 2.05412 1.77624
upperback 0.0108414 2.98605 2.51574
thorax -3.45412 1.48987 1.33087
lowerneck -17.4309 -3.6977 -9.46639
upperneck 21.3884 -3.32663 4.15812
head 9.92595 -1.77278 2.58917
rclavicle -9.29318e-015 -1.55052e-014
rhumerus -23.2018 -9.10118 -81.6195
rradius 37.055
rwrist 1.82626
rhand -14.0836 12.0353
rfingers 7.12502
rthumb 12.0485 -17.5979
lclavicle -9.29318e-015 -1.55052e-014
lhumerus -34.2065 18.7151 80.9132
lradius 22.6616
lwrist -11.8521
lhand -16.4317 23.5933
lfingers 7.12502
lthumb 9.78372 53.346
rfemur 8.56789 7.81665 28.6126
rtibia 16.0636
rfoot -13.0555 -3.47031
rtoes 2.07974
lfemur -29.6181 -1.53714 -14.9808
ltibia 18.3039
lfoot -6.96227 5.76393
ltoes -12.266
490
root 14.222 17.4411 15.8127 141.64 96.3019 138.249
lowerback 6.02911 1.76014 1.95439
upperback 0.107795 2.62254 2.8795
thorax -3.31808 1.31404 1.64347
lowerneck -17.9483 -3.69493 -10.4709
upperneck 21.6726 -3.01673 4.31565
head 10.126 -1.69436 2.855
rclavicle -1.33186e-014 1.63003e-014
rhumerus -23.0069 -7.86962 -81.4736
rradius 37.0861
rwrist 1.73165
rhand -14.0673 11.8024
rfingers 7.12502
rthumb 12.0642 -17.8298
lclavicle -1.33186e-014 1.63003e-014
lhumerus -34.2455 20.2474 80.7836
lradius 22.525
lwrist -11.8658
lhand -15.7241 23.261
lfingers 7.12502
lthumb 10.4663 52.9804
rfemur 8.99732 7.52689 28.8289
rtibia 16.255
rfoot -12.7719 -3.4795
rtoes -0.373858
lfemur -29.4183 -1.17187 -15.1684
ltibia 18.7202
lfoot -6.16217 5.99101
ltoes -9.89953
491
root 14.3756 17.4358 15.804 140.277 96.221 137.04
lowerback 6.18517 2.98282 2.873
upperback -0.23637 4.25497 1.3976
thorax -3.60608 2.08043 -0.552069
lowerneck -16.5052 -4.63509 -7.11075
upperneck 21.3379 -5.32458 4.00125
head 9.80316 -2.52556 1.87644
rclavicle -1.99903e-014 1.97791e-014
rhumerus -24.7357 -13.2892 -81.7284
rradius 37.448
rwrist 2.51355
rhand -13.9788 11.8693
rfingers 7.12502
rthumb 12.1496 -17.7579
lclavicle -1.99903e-014 1.97791e-014
lhumerus -33.3562 15.2781 80.5264
lradius 21.9679
lwrist -12.0932
lhand -15.5622 23.2279
lfingers 7.12502
lthumb 10.6225 52.9394
rfemur 9.46784 7.41845 28.8961
rtibia 16.6532
rfoot -12.635 -3.47471
rtoes -1.52991
lfemur -28.935 -1.66861 -15.221
ltibia 19.1201
lfoot -5.54836 6.98351
ltoes -8.25066
492
root 14.5294 17.4236 15.799 140.334 95.9039 137.37
lowerback 6.2036 2.14143 2.1823
upperback 0.0261357 3.11279 2.09088
thorax -3.45098 1.53946 0.651403
lowerneck -17.0982 -4.01392 -8.89086
upperneck 21.5356 -4.01673 4.3858
head 9.95725 -2.02004 2.48289
rclavicle 9.93923e-016 5.1684e-015
rhumerus -24.0505 -10.668 -81.8142
rradius 37.1011
rwrist 2.58086
rhand -13.6446 12.2484
rfingers 7.12502
rthumb 12.4718 -17.3594
lclavicle 9.93923e-016 5.1684e-015
lhumerus -33.8789 18.3095 80.3472
lradius 22.1183
lwrist -12.7113
lhand -15.8945 23.4382
lfingers 7.12502
lthumb 10.3019 53.1659
rfemur 10.0412 7.48128 28.7381
rtibia 17.173
rfoot -12.4477 -3.54994
rtoes -1.10864
lfemur -28.281 -2.79706 -15.386
ltibia 19.5109
lfoot -5.20207 7.99524
ltoes -7.88701
493
root 14.6887 17.4092 15.7918 141.132 95.831 138.366
lowerback 6.20228 1.86144 1.73206
upperback 0.131948 2.72343 2.46007
thorax -3.38085 1.35998 1.32041
lowerneck -17.491 -3.78995 -9.57098
upperneck 21.8137 -3.46576 4.35822
head 10.1057 -1.82416 2.6634
rclavicle 2.75814e-015 -3.18055e-014
rhumerus -24.0537 -9.24058 -81.6511
rradius 37.1367
rwrist 2.18769
rhand -13.7968 12.1803
rfingers 7.12502
rthumb 12.325 -17.4364
lclavicle 2.75814e-015 -3.18055e-014
lhumerus -34.119 19.4016 80.4339
lradius 22.2473
lwrist -12.1067
lhand -16.2422 23.5863
lfingers 7.12502
lthumb 9.9665 53.3303
rfemur 10.5054 7.61318 28.6386
rtibia 17.7658
rfoot -12.1958 -3.48226
rtoes 0.302431
lfemur -27.6638 -2.77055 -15.7672
ltibia 19.8375
lfoot -4.72268 7.61796
ltoes -8.95983
494
root 14.8609 17.4082 15.7801 143.559 95.9144 140.938
lowerback 6.01179 2.00776 1.47595
upperback 0.192702 2.89422 2.5099
thorax -3.22846 1.4504 1.50771
lowerneck -17.4792 -3.83791 -9.50169
upperneck 21.8907 -3.50845 4.18593
head 10.1307 -1.85818 2.58528
rclavicle 1.36664e-014 -5.56597e-015
rhumerus -24.4175 -8.92784 -81.4261
rradius 37.2883
rwrist 1.76403
rhand -14.5111 11.882
rfingers 7.12502
rthumb 11.6363 -17.7749
lclavicle 1.36664e-014 -5.56597e-015
lhumerus -34.0927 19.4488 80.5455
lradius 22.1996
lwrist -11.835
lhand -16.4274 23.5735
lfingers 7.12502
lthumb 9.78779 53.326
rfemur 10.8211 7.70818 28.4321
rtibia 18.4876
rfoot -11.9237 -3.32652
rtoes 0.315782
lfemur -27.0253 -2.40922 -16.2019
ltibia 20.0428
lfoot -3.87666 6.76053
ltoes -9.23104
495
root 15.0377 17.4202 15.7643 146.249 95.9286 143.814
lowerback 5.92943 2.34545 1.47336
upperback 0.117104 3.32552 2.17617
thorax -3.24766 1.65928 1.12946
lowerneck -16.9162 -4.01874 -8.93074
upperneck 21.7575 -3.97649 4.19956
head 9.99763 -2.02655 2.43357
rclavicle -3.96824e-014 -1.78906e-014
rhumerus -25.2035 -10.0378 -81.3532
rradius 37.4189
rwrist 1.84096
rhand -14.6769 11.8689
rfingers 7.12502
rthumb 11.4764 -17.797
lclavicle -3.96824e-014 -1.78906e-014
lhumerus -33.9766 17.9814 80.6715
lradius 22.0529
lwrist -11.6275
lhand -16.9217 23.9312
lfingers 7.12502
lthumb 9.31087 53.7056
rfemur 11.1905 7.83303 28.133
rtibia 19.2386
rfoot -11.5385 -3.20089
rtoes 0.318223
lfemur -26.4754 -2.28947 -16.6613
ltibia 20.2725
lfoot -2.21171 5.86453
ltoes -7.31104
496
root 15.2121 17.4374 15.7348 147.863 95.665 145.482
lowerback 5.79077 2.44187 1.63851
upperback 0.000632235 3.44546 1.81103
thorax -3.2589 1.71041 0.65504
lowerneck -16.5373 -4.13098 -8.59176
upperneck 21.7007 -4.28126 4.29341
head 9.92077 -2.13003 2.37204
rclavicle -1.19022e-014 5.96354e-016
rhumerus -25.8294 -11.2074 -81.3533
rradius 37.356
rwrist 2.1812
rhand -14.352 11.8735
rfingers 7.12502
rthumb 11.7896 -17.7747
lclavicle -1.19022e-014 5.96354e-016
lhumerus -33.8466 16.0266 81.0242
lradius 22.017
lwrist -10.4003
lhand -16.689 24.2703
lfingers 7.12502
lthumb 9.53543 54.0345
rfemur 11.3023 7.45469 27.569
rtibia 20.1228
rfoot -11.1281 -2.5778
rtoes 1.19876
lfemur -26.2442 -2.06063 -17.3297
ltibia 20.4488
lfoot 0.299195 4.57969
ltoes -1.49337
